<svg xmlns="http://www.w3.org/2000/svg" width="1637.26" height="1497.829" fill="none" overflow="visible"><g><path d="M 327.306 425.778 L 1309.954 425.778 C 1417.756 425.778 1505.951 513.972 1505.951 621.775 L 1505.951 1301.833 C 1505.951 1409.635 1417.756 1497.829 1309.954 1497.829 L 327.306 1497.829 C 219.504 1497.829 131.309 1409.635 131.309 1301.833 L 131.309 621.775 C 131.309 513.972 219.504 425.778 327.306 425.778 Z M 214.45 645.46 L 214.45 1278.147 C 214.45 1353.103 275.776 1414.429 350.732 1414.429 L 1286.528 1414.429 C 1361.484 1414.429 1422.809 1353.103 1422.809 1278.147 L 1422.809 645.46 C 1422.809 570.504 1361.484 509.179 1286.528 509.179 L 350.732 509.179 C 275.776 509.179 214.45 570.504 214.45 645.46 Z" fill="rgb(74,115,89)"></path><path d="M 375.615 544.714 L 1261.64 544.714 C 1296.276 544.714 1327.798 558.898 1350.589 581.685 C 1373.38 604.476 1387.56 635.997 1387.56 670.633 L 1387.56 1252.97 C 1387.56 1287.619 1373.376 1319.127 1350.589 1341.918 C 1327.798 1364.709 1296.276 1378.889 1261.64 1378.889 L 375.615 1378.889 C 340.966 1378.889 309.458 1364.705 286.667 1341.918 C 263.876 1319.127 249.696 1287.619 249.696 1252.97 L 249.696 670.633 C 249.696 635.997 263.88 604.476 286.667 581.685 C 309.458 558.894 340.979 544.714 375.615 544.714 Z M 1261.64 572.447 L 375.615 572.447 C 348.64 572.447 324.081 583.504 306.283 601.301 C 288.486 619.099 277.429 643.658 277.429 670.633 L 277.429 1252.97 C 277.429 1279.962 288.486 1304.504 306.283 1322.301 C 324.081 1340.099 348.627 1351.156 375.615 1351.156 L 1261.64 1351.156 C 1288.616 1351.156 1313.175 1340.099 1330.972 1322.301 C 1348.77 1304.504 1359.826 1279.958 1359.826 1252.97 L 1359.826 670.633 C 1359.826 643.658 1348.77 619.099 1330.972 601.301 C 1313.175 583.504 1288.616 572.447 1261.64 572.447 Z" fill="rgb(74,115,89)"></path><path d="M 533.546 827.695 C 582.153 827.695 621.561 867.103 621.561 915.71 C 621.561 964.317 582.153 1003.725 533.546 1003.725 C 484.939 1003.725 445.531 964.317 445.531 915.71 C 445.531 867.103 484.939 827.695 533.546 827.695 Z M 533.853 880.222 C 533.853 894.896 545.749 906.792 560.423 906.792 C 575.097 906.792 586.994 894.896 586.994 880.222 C 586.994 865.548 575.097 853.652 560.423 853.652 C 545.749 853.652 533.853 865.548 533.853 880.222 Z M 1103.705 827.695 C 1152.313 827.695 1191.721 867.103 1191.721 915.71 C 1191.721 964.317 1152.313 1003.725 1103.705 1003.725 C 1055.098 1003.725 1015.69 964.317 1015.69 915.71 C 1015.69 867.103 1055.098 827.695 1103.705 827.695 Z M 1104.783 880.222 C 1104.783 894.896 1116.679 906.792 1131.354 906.792 C 1146.028 906.792 1157.924 894.896 1157.924 880.222 C 1157.924 865.548 1146.028 853.652 1131.354 853.652 C 1116.679 853.652 1104.783 865.548 1104.783 880.222 Z" fill="rgb(74,115,89)"></path><path d="M 660.156 1139.309 C 653.402 1135.755 650.808 1127.374 654.361 1120.621 C 657.915 1113.867 666.296 1111.272 673.049 1114.826 C 724.72 1142.138 772.637 1155.572 819.851 1155.282 C 866.954 1154.984 913.989 1140.949 963.981 1113.356 C 970.679 1109.675 979.107 1112.129 982.784 1118.827 C 986.461 1125.525 984.011 1133.953 977.313 1137.63 C 923.346 1167.426 872.011 1182.581 819.961 1182.905 C 768.005 1183.22 715.862 1168.746 660.156 1139.304 Z" fill="rgb(74,115,89)"></path><path d="M 71.066 762.53 L 94.39 762.53 L 94.39 1104.285 L 71.066 1104.285 C 31.977 1104.285 0 1072.303 0 1033.219 L 0 833.596 C 0 794.512 31.982 762.53 71.066 762.53 Z M 1637.26 833.596 L 1637.26 1033.219 C 1637.26 1072.303 1605.278 1104.285 1566.194 1104.285 L 1542.87 1104.285 L 1542.87 762.53 L 1566.194 762.53 C 1605.278 762.53 1637.26 794.512 1637.26 833.596 Z" fill="rgb(74,115,89)"></path><g transform="translate(722.385 0)"><path d="M 56.217 160.074 L 136.277 160.074 L 136.277 395.3 L 56.217 395.3 Z" fill="rgb(74,115,89)"></path><path d="M 96.239 0 C 149.396 0 192.486 43.089 192.486 96.239 C 192.486 149.396 149.396 192.486 96.239 192.486 C 43.089 192.486 0 149.396 0 96.239 C 0 43.089 43.089 0 96.239 0 Z M 55.211 96.247 C 55.211 118.91 73.584 137.283 96.247 137.283 C 118.91 137.283 137.283 118.91 137.283 96.247 C 137.283 73.584 118.91 55.211 96.247 55.211 C 73.584 55.211 55.211 73.584 55.211 96.247 Z" fill="rgb(74,115,89)"></path></g></g></svg>